# xmcd
#
# Track frame offsets:
# 150
# 12917
# 25137
# 39362
# 53585
# 66395
# 76152
# 92472
# 104612
# 116710
# 129657
# 146122
# 162642
# 176185
# 195300
# 217050
#
# Disc length: 3060 seconds
#
#
# Revision: 6
# Processed by: cddbd v1.5.1PL2 Copyright (c) Steve Scherf et al.
# Submitted via: FreeRIP 2.945 
#
DISCID=e20bf210
DTITLE=Merle Haggard - 16 Biggest Hits
DYEAR=1998
DGENRE=Country
TTITLE0=Swinging Doors
TTITLE1=The Bottle Let Me Down
TTITLE2=I'm A Lonesome Fugitive
TTITLE3=Branded Man
TTITLE4=Sing Me Back Home
TTITLE5=Mama Tried
TTITLE6=Hungry Eyes
TTITLE7=Workin' Man Blues
TTITLE8=Okie From Muskogee
TTITLE9=The Fightin' Side of Me
TTITLE10=Daddy Frank (The Guitar Man)
TTITLE11=I Think I'll Just Stay Here And Drink
TTITLE12=Big City
TTITLE13=Are The Good Times Really Over (I Wish A Buck Was Still Silver)
TTITLE14=Going Where The Lonely Go
TTITLE15=Silver Wings
EXTD=Epic Legacy
EXTT0=
EXTT1=
EXTT2=
EXTT3=
EXTT4=
EXTT5=
EXTT6=
EXTT7=
EXTT8=
EXTT9=
EXTT10=
EXTT11=
EXTT12=
EXTT13=
EXTT14=
EXTT15=
PLAYORDER=
